<mxfile host="Electron" agent="Mozilla/5.0 (Macintosh; Intel Mac OS X 10_15_7) AppleWebKit/537.36 (KHTML, like Gecko) draw.io/26.2.2 Chrome/134.0.6998.178 Electron/35.1.2 Safari/537.36" version="26.2.2">
  <diagram name="Strona-1" id="2TLRT6_yWU5ia_znS-wH">
    <mxGraphModel dx="948" dy="1219" grid="1" gridSize="10" guides="1" tooltips="1" connect="1" arrows="1" fold="1" page="1" pageScale="1" pageWidth="827" pageHeight="1169" math="0" shadow="0">
      <root>
        <mxCell id="0" />
        <mxCell id="1" parent="0" />
        <mxCell id="7hph73oft52luMVQJUQy-1" value="&lt;font style=&quot;font-size: 20px;&quot;&gt;&lt;b&gt;Generowanie faktur&lt;/b&gt;&lt;/font&gt;" style="text;html=1;align=center;verticalAlign=middle;resizable=0;points=[];autosize=1;strokeColor=none;fillColor=none;" parent="1" vertex="1">
          <mxGeometry x="309" y="23" width="210" height="40" as="geometry" />
        </mxCell>
        <mxCell id="7hph73oft52luMVQJUQy-2" value="&lt;font style=&quot;font-size: 18px;&quot;&gt;System:&lt;/font&gt;&lt;div&gt;&lt;font style=&quot;font-size: 18px;&quot;&gt;Finanse&lt;/font&gt;&lt;/div&gt;" style="shape=umlFrame;whiteSpace=wrap;html=1;pointerEvents=0;width=160;height=110;" parent="1" vertex="1">
          <mxGeometry x="140" y="120" width="560" height="880" as="geometry" />
        </mxCell>
        <mxCell id="7hph73oft52luMVQJUQy-5" style="edgeStyle=orthogonalEdgeStyle;rounded=0;orthogonalLoop=1;jettySize=auto;html=1;" parent="1" source="7hph73oft52luMVQJUQy-3" target="7hph73oft52luMVQJUQy-4" edge="1">
          <mxGeometry relative="1" as="geometry" />
        </mxCell>
        <mxCell id="7hph73oft52luMVQJUQy-3" value="&lt;font style=&quot;font-size: 18px;&quot;&gt;System&lt;/font&gt;" style="ellipse;shape=umlEntity;whiteSpace=wrap;html=1;" parent="1" vertex="1">
          <mxGeometry x="355" y="250" width="140" height="130" as="geometry" />
        </mxCell>
        <mxCell id="7hph73oft52luMVQJUQy-4" value="&lt;font style=&quot;font-size: 20px;&quot;&gt;Generowanie faktur&lt;/font&gt;" style="ellipse;whiteSpace=wrap;html=1;" parent="1" vertex="1">
          <mxGeometry x="220" y="560" width="410" height="230" as="geometry" />
        </mxCell>
      </root>
    </mxGraphModel>
  </diagram>
</mxfile>
